<svg xmlns="http://www.w3.org/2000/svg" width="76.495" height="50" viewBox="0 0 76.495 50">
  <path id="free-shipping" d="M76.494,98.926c0-.014,0-.029,0-.043a1.752,1.752,0,0,0-1.761-1.722h-.462L67.128,83.355a1.754,1.754,0,0,0-1.565-.946l-12.192,0,.465-3.687a5.01,5.01,0,0,0-5.05-5.547H10.947A1.87,1.87,0,0,0,9.1,74.857l-.379,3.038H30.276a2.456,2.456,0,0,1,2.468,2.535,2.617,2.617,0,0,1-2.6,2.535H22.953l0,.011H1.84A1.85,1.85,0,0,0,0,84.767a1.737,1.737,0,0,0,1.745,1.792H29.7a2.627,2.627,0,0,1,2.232,2.681,2.8,2.8,0,0,1-2.764,2.715H9.9a1.869,1.869,0,0,0-1.858,1.81A1.754,1.754,0,0,0,9.8,95.576H28.848a2.628,2.628,0,0,1,2.27,2.687,2.8,2.8,0,0,1-2.787,2.716H6.48v0H4.644a1.869,1.869,0,0,0-1.858,1.81,1.754,1.754,0,0,0,1.763,1.81H6.133l-.62,6.485a5.01,5.01,0,0,0,5.05,5.547h1.367a7.9,7.9,0,0,0,7.816,6.539,8.432,8.432,0,0,0,8.158-6.539H44.963a5.779,5.779,0,0,0,3.709-1.391,5.04,5.04,0,0,0,3.533,1.391h.281a7.9,7.9,0,0,0,7.816,6.539,8.432,8.432,0,0,0,8.158-6.539h1.126a5.947,5.947,0,0,0,5.8-5.316l1.1-12.222c0-.016,0-.033,0-.049s.005-.05.006-.075S76.494,98.941,76.494,98.926ZM19.842,119.551a4.391,4.391,0,0,1-4.408-4.526,4.678,4.678,0,0,1,4.645-4.526,4.391,4.391,0,0,1,4.408,4.526A4.677,4.677,0,0,1,19.842,119.551Zm40.554,0a4.391,4.391,0,0,1-4.408-4.526,4.678,4.678,0,0,1,4.645-4.526,4.391,4.391,0,0,1,4.408,4.526A4.677,4.677,0,0,1,60.4,119.551Zm11.381-8.465a2.18,2.18,0,0,1-2.1,1.926H68.462a7.9,7.9,0,0,0-7.734-6.134,8.433,8.433,0,0,0-8.055,6.134H52.3a1.538,1.538,0,0,1-1.157-.486,1.558,1.558,0,0,1-.381-1.209l2.283-25.29h5.243l-.831,9.207a5.01,5.01,0,0,0,5.05,5.547h10.2Z" transform="translate(0 -73.172)" fill="#f93"/>
</svg>
