<svg xmlns="http://www.w3.org/2000/svg" width="44.01" height="50" viewBox="0 0 44.01 50">
  <g id="refund" transform="translate(-11.608)">
    <g id="Group_12" data-name="Group 12" transform="translate(11.608)">
      <g id="Group_11" data-name="Group 11" transform="translate(0)">
        <path id="Path_1" data-name="Path 1" d="M47.113,10.606l-2.412,3.1A18.09,18.09,0,1,1,34.606,9.939L31.211,13.5l2.518,2.4,5.358-5.626v0l2.4-2.521-2.516-2.4h0L33.349,0l-2.4,2.521,3.664,3.49a22,22,0,0,0-4.417,43.717A22.238,22.238,0,0,0,33.66,50,22.013,22.013,0,0,0,47.113,10.606Z" transform="translate(-11.608)" fill="#f93"/>
        <path id="Path_2" data-name="Path 2" d="M78.051,91.087h0v-2.26c2.679-.3,5.286-1.992,5.286-5.2,0-4.366-4.059-4.866-7.025-5.231-1.9-.227-3.347-.49-3.347-1.638,0-1.6,2.251-1.769,3.219-1.769a4.369,4.369,0,0,1,3.49,1.537l.151.251L82.8,75.393l-.147-.3A5.878,5.878,0,0,0,78.05,71.9V69.913H74.563v1.981c-3.247.479-5.175,2.281-5.175,4.859,0,4.2,3.817,4.63,6.6,4.942,2.482.293,3.637.906,3.637,1.927,0,1.952-2.7,2.1-3.531,2.1-1.844,0-3.622-.92-4.137-2.142l-.128-.3L68.6,84.654l.129.3a6.824,6.824,0,0,0,5.839,3.98v2.151Z" transform="translate(-53.89 -51.873)" fill="#f93"/>
      </g>
    </g>
  </g>
</svg>
