<svg xmlns="http://www.w3.org/2000/svg" width="38.086" height="50" viewBox="0 0 38.086 50">
  <g id="support" transform="translate(0)">
    <path id="Path_3" data-name="Path 3" d="M0,364.395v10.449H38.086V364.395A4.4,4.4,0,0,0,33.691,360H4.395A4.4,4.4,0,0,0,0,364.395Zm2.93,0a1.467,1.467,0,0,1,1.465-1.465H5.859v8.984H2.93Zm5.859-1.465h3.788l6.466,6.466,6.466-6.466H29.3v8.984H8.789Zm26.367,1.465v7.52h-2.93V362.93h1.465A1.467,1.467,0,0,1,35.156,364.395ZM21.366,362.93l-2.323,2.323L16.72,362.93Zm0,0" transform="translate(0 -324.844)" fill="#f93"/>
    <path id="Path_4" data-name="Path 4" d="M30,29.3h2.227v-2.93h1.465a4.4,4.4,0,0,0,4.395-4.395v-2.93A19.043,19.043,0,0,0,0,19.043v2.93a4.4,4.4,0,0,0,4.395,4.395H6.613A13.179,13.179,0,0,0,30,29.3Zm3.692-5.859H32.144a13.177,13.177,0,0,0,.082-1.465v-2.93a13.177,13.177,0,0,0-.082-1.465h1.547a1.467,1.467,0,0,1,1.465,1.465v2.93A1.467,1.467,0,0,1,33.691,23.438ZM19.043,2.93A16.142,16.142,0,0,1,34.571,14.737a4.4,4.4,0,0,0-.88-.089H31.472a13.183,13.183,0,0,0-24.859,0H4.394a4.4,4.4,0,0,0-.88.089A16.142,16.142,0,0,1,19.043,2.93Zm8.412,10.257a10.3,10.3,0,0,1-8.412,4.391H8.894a10.251,10.251,0,0,1,18.561-4.391ZM4.394,23.438a1.467,1.467,0,0,1-1.465-1.465v-2.93a1.467,1.467,0,0,1,1.465-1.465H5.941a13.177,13.177,0,0,0-.082,1.465v2.93a13.177,13.177,0,0,0,.082,1.465Zm4.395-1.465V20.508H19.043a13.233,13.233,0,0,0,9.825-4.4,10.207,10.207,0,0,1,.428,2.933v2.93a10.194,10.194,0,0,1-.991,4.395H23.437L22.15,25.08a4.395,4.395,0,0,1-6.215,0l-2.071,2.071a7.324,7.324,0,0,0,9.573.681V29.3h2.774A10.248,10.248,0,0,1,8.789,21.973Zm0,0" fill="#f93"/>
  </g>
</svg>
